<?xml version="1.0" encoding="UTF-8"?>
<svg xmlns="http://www.w3.org/2000/svg" xmlns:xlink="http://www.w3.org/1999/xlink" viewBox="0 0 50 50" width="50px" height="50px">
<g id="surface150595957">
<path style=" stroke:none;fill-rule:nonzero;fill:rgb(100%,100%,100%);fill-opacity:1;" d="M 24.902344 6.300781 C 20.183594 6.316406 15.496094 6.917969 13.058594 8.042969 C 13.058594 8.042969 7.8125 10.429688 7.8125 18.5625 C 7.8125 28.246094 7.804688 40.40625 16.503906 42.757812 C 19.835938 43.652344 22.699219 43.847656 25.003906 43.714844 C 29.183594 43.476562 31.25 42.195312 31.25 42.195312 L 31.109375 39.109375 C 31.109375 39.109375 28.402344 40.0625 25.046875 39.953125 C 21.722656 39.835938 18.222656 39.585938 17.675781 35.4375 C 17.625 35.050781 17.601562 34.660156 17.601562 34.269531 C 24.644531 36.019531 30.648438 35.03125 32.304688 34.832031 C 36.917969 34.273438 40.9375 31.378906 41.449219 28.730469 C 42.253906 24.5625 42.183594 18.5625 42.183594 18.5625 C 42.183594 10.429688 36.949219 8.042969 36.949219 8.042969 C 34.375 6.839844 29.621094 6.28125 24.902344 6.300781 Z M 19.851562 12.503906 C 21.46875 12.546875 23.066406 13.269531 24.050781 14.796875 L 25.003906 16.414062 L 25.953125 14.796875 C 27.929688 11.722656 32.359375 11.917969 34.464844 14.292969 C 36.410156 16.558594 35.976562 18.015625 35.976562 28.125 L 35.976562 28.128906 L 32.152344 28.128906 L 32.152344 19.332031 C 32.152344 15.214844 26.90625 15.058594 26.90625 19.902344 L 26.90625 25 L 23.105469 25 L 23.105469 19.902344 C 23.105469 15.058594 17.859375 15.210938 17.859375 19.328125 L 17.859375 28.125 L 14.027344 28.125 C 14.027344 18.007812 13.601562 16.539062 15.535156 14.292969 C 16.597656 13.097656 18.234375 12.460938 19.851562 12.503906 Z M 19.851562 12.503906 "/>
</g>
</svg>
